{
  "accessors": [
    {
      "bufferView": 2,
      "componentType": 5126,
      "count": 11847,
      "max": [
        0.84397697448730469,
        1.8963379859924316,
        0.22102199494838715
      ],
      "min": [
        -0.84397697448730469,
        -0.0019960000645369291,
        -0.24822600185871124
      ],
      "type": "VEC3"
    },
    {
      "bufferView": 2,
      "byteOffset": 142164,
      "componentType": 5126,
      "count": 11847,
      "max": [
        0.99984067678451538,
        0.99999916553497314,
        0.99959093332290649
      ],
      "min": [
        -0.99984067678451538,
        -0.99999654293060303,
        -0.99999886751174927
      ],
      "type": "VEC3"
    },
    {
      "bufferView": 3,
      "componentType": 5126,
      "count": 11847,
      "max": [
        0.99999207258224487,
        0.99970674514770508,
        0.99989569187164307,
        1
      ],
      "min": [
        -0.99999207258224487,
        -0.99999886751174927,
        -0.99999922513961792,
        -1
      ],
      "type": "VEC4"
    },
    {
      "bufferView": 1,
      "componentType": 5126,
      "count": 11847,
      "max": [
        0.99306899309158325,
        0.98751598596572876
      ],
      "min": [
        0.015205999836325645,
        0.0066979997791349888
      ],
      "type": "VEC2"
    },
    {
      "bufferView": 0,
      "componentType": 5125,
      "count": 35142,
      "max": [
        11846
      ],
      "min": [
        0
      ],
      "type": "SCALAR"
    }
  ],
  "asset": {
    "extras": {
      "author": "THEIRONBOI (https://sketchfab.com/TheIr0nBoi)",
      "license": "CC-BY-4.0 (http://creativecommons.org/licenses/by/4.0/)",
      "source": "https://sketchfab.com/3d-models/iron-man-with-no-rig-3972bc5d690147b98251b4753c85d111",
      "title": "Iron-man-with no rig"
    },
    "generator": "Sketchfab-10.40.0",
    "version": "2.0"
  },
  "bufferViews": [
    {
      "buffer": 0,
      "byteLength": 140568,
      "byteOffset": 0,
      "name": "floatBufferViews",
      "target": 34963
    },
    {
      "buffer": 0,
      "byteLength": 94776,
      "byteOffset": 140568,
      "byteStride": 8,
      "name": "floatBufferViews",
      "target": 34962
    },
    {
      "buffer": 0,
      "byteLength": 284328,
      "byteOffset": 235344,
      "byteStride": 12,
      "name": "floatBufferViews",
      "target": 34962
    },
    {
      "buffer": 0,
      "byteLength": 189552,
      "byteOffset": 519672,
      "byteStride": 16,
      "name": "floatBufferViews",
      "target": 34962
    }
  ],
  "buffers": [
    {
      "byteLength": 709224,
      "uri": "scene.bin"
    }
  ],
  "images": [
    {
      "uri": "textures/COC_iOS_HER_TST_VII_B_baseColor.png"
    },
    {
      "uri": "textures/COC_iOS_HER_TST_VII_B_emissive.png"
    },
    {
      "uri": "textures/COC_iOS_HER_TST_VII_B_normal.png"
    }
  ],
  "materials": [
    {
      "doubleSided": true,
      "emissiveFactor": [
        1,
        1,
        1
      ],
      "emissiveTexture": {
        "index": 1,
        "texCoord": 0
      },
      "name": "COC_iOS_HER_TST_VII_B",
      "normalTexture": {
        "index": 2,
        "scale": 0.09840441251664854,
        "texCoord": 0
      },
      "pbrMetallicRoughness": {
        "baseColorFactor": [
          1,
          1,
          1,
          1
        ],
        "baseColorTexture": {
          "index": 0,
          "texCoord": 0
        },
        "metallicFactor": 0.99926144407099204,
        "roughnessFactor": 0.037535694168382087
      }
    }
  ],
  "meshes": [
    {
      "name": "M-COC_iOS_HERO_Tony_Stark_Iron_Man_Mark_VII_COC_iOS_HER_TST_VII_B_0",
      "primitives": [
        {
          "attributes": {
            "NORMAL": 1,
            "POSITION": 0,
            "TANGENT": 2,
            "TEXCOORD_0": 3
          },
          "indices": 4,
          "material": 0,
          "mode": 4
        }
      ]
    }
  ],
  "nodes": [
    {
      "children": [
        1
      ],
      "name": "RootNode (gltf orientation matrix)",
      "rotation": [
        -0.70710678118654746,
        -0,
        -0,
        0.70710678118654757
      ]
    },
    {
      "children": [
        2
      ],
      "matrix": [
        0.0028405433986335993,
        0,
        0,
        0,
        0,
        0.0028405433986335993,
        0,
        0,
        0,
        0,
        0.0028405433986335993,
        0,
        0,
        0,
        0,
        1
      ],
      "name": "RootNode (model correction matrix)"
    },
    {
      "children": [
        3
      ],
      "matrix": [
        1,
        0,
        0,
        0,
        0,
        0,
        1,
        0,
        0,
        -1,
        0,
        0,
        0,
        0,
        0,
        1
      ],
      "name": "iron man.fbx"
    },
    {
      "children": [
        4,
        6,
        9
      ],
      "name": "RootNode"
    },
    {
      "children": [
        5
      ],
      "matrix": [
        343.44818115234375,
        0,
        0,
        0,
        0,
        343.4481811523392,
        5.5954812915748781e-05,
        0,
        0,
        -5.5954812915748781e-05,
        343.4481811523392,
        0,
        0,
        0,
        0,
        1
      ],
      "name": "M-COC_iOS_HERO_Tony_Stark_Iron_Man_Mark_VII"
    },
    {
      "mesh": 0,
      "name": "M-COC_iOS_HERO_Tony_Stark_Iron_Man_Mark_VII_COC_iOS_HER_TST_VII_B_0"
    },
    {
      "children": [
        7
      ],
      "matrix": [
        -24.151295093840858,
        -96.564553691441901,
        9.5918424477165125,
        0,
        31.785505782457967,
        -17.211202615943357,
        -93.238705088961183,
        0,
        91.686403879996163,
        -19.469537686439985,
        34.850257471509693,
        0,
        -147.11241149902344,
        -668.8824462890625,
        -345.5830078125,
        1
      ],
      "name": "Lamp"
    },
    {
      "children": [
        8
      ],
      "matrix": [
        1,
        0,
        0,
        0,
        0,
        2.2204460492503131e-16,
        1,
        0,
        0,
        -1,
        2.2204460492503131e-16,
        0,
        0,
        0,
        0,
        1
      ],
      "name": ""
    },
    {
      "name": ""
    },
    {
      "children": [
        10
      ],
      "matrix": [
        -4.6504147665895017,
        95.266274209523061,
        -30.045117987050741,
        0,
        64.742382340806557,
        25.779646725693915,
        71.720535897427624,
        0,
        76.07100766796286,
        -16.116622769871835,
        -62.876515988677269,
        0,
        13.904023170471191,
        -325.01992797851562,
        350.313720703125,
        1
      ],
      "name": "Lamp.001"
    },
    {
      "children": [
        11
      ],
      "matrix": [
        1,
        0,
        0,
        0,
        0,
        2.2204460492503131e-16,
        1,
        0,
        0,
        -1,
        2.2204460492503131e-16,
        0,
        0,
        0,
        0,
        1
      ],
      "name": ""
    },
    {
      "name": ""
    }
  ],
  "samplers": [
    {
      "magFilter": 9729,
      "minFilter": 9987,
      "wrapS": 10497,
      "wrapT": 10497
    }
  ],
  "scene": 0,
  "scenes": [
    {
      "name": "OSG_Scene",
      "nodes": [
        0
      ]
    }
  ],
  "textures": [
    {
      "sampler": 0,
      "source": 0
    },
    {
      "sampler": 0,
      "source": 1
    },
    {
      "sampler": 0,
      "source": 2
    }
  ]
}

