{
  "accessors": [
    {
      "bufferView": 3,
      "componentType": 5126,
      "count": 731,
      "max": [
        5.5290431976318359,
        2.8221995830535889,
        9.2179994583129883
      ],
      "min": [
        -4.9340682029724121,
        0.6266864538192749,
        -9.2432498931884766
      ],
      "type": "VEC3"
    },
    {
      "bufferView": 3,
      "byteOffset": 8772,
      "componentType": 5126,
      "count": 731,
      "max": [
        0.99999982118606567,
        1,
        1
      ],
      "min": [
        -0.99980098009109497,
        -1,
        -1
      ],
      "type": "VEC3"
    },
    {
      "bufferView": 2,
      "componentType": 5126,
      "count": 731,
      "max": [
        0.99316102266311646,
        0.99456644058227539
      ],
      "min": [
        0.0074985148385167122,
        0.012147128582000732
      ],
      "type": "VEC2"
    },
    {
      "bufferView": 1,
      "componentType": 5125,
      "count": 2316,
      "max": [
        730
      ],
      "min": [
        0
      ],
      "type": "SCALAR"
    },
    {
      "bufferView": 5,
      "componentType": 5126,
      "count": 10,
      "max": [
        1,
        0,
        0,
        0,
        0.0046644131653010845,
        1,
        0,
        0,
        0,
        0,
        1,
        0,
        4.9351897239685059,
        0,
        0,
        1
      ],
      "min": [
        0.9999890923500061,
        -0.0046644131653010845,
        0,
        0,
        0,
        0.9999890923500061,
        0,
        0,
        0,
        0,
        1,
        0,
        -4.7005743980407715,
        -2.3635613918304443,
        -0.07003551721572876,
        1
      ],
      "type": "MAT4"
    },
    {
      "bufferView": 0,
      "componentType": 5123,
      "count": 731,
      "max": [
        9,
        9,
        8,
        2
      ],
      "min": [
        1,
        1,
        1,
        2
      ],
      "type": "VEC4"
    },
    {
      "bufferView": 4,
      "componentType": 5126,
      "count": 731,
      "max": [
        1,
        0.5,
        0.1875,
        0
      ],
      "min": [
        0.47499999403953552,
        0,
        0,
        0
      ],
      "type": "VEC4"
    },
    {
      "bufferView": 6,
      "componentType": 5126,
      "count": 150,
      "max": [
        5
      ],
      "min": [
        0.041666667908430099
      ],
      "type": "SCALAR"
    },
    {
      "bufferView": 8,
      "componentType": 5126,
      "count": 150,
      "max": [
        0,
        0,
        0.022751586511731148,
        0.99999791383743286
      ],
      "min": [
        0,
        0,
        -0.71413099765777588,
        0.70001208782196045
      ],
      "type": "VEC4"
    },
    {
      "bufferView": 6,
      "byteOffset": 600,
      "componentType": 5126,
      "count": 150,
      "max": [
        5
      ],
      "min": [
        0.041666667908430099
      ],
      "type": "SCALAR"
    },
    {
      "bufferView": 8,
      "byteOffset": 2400,
      "componentType": 5126,
      "count": 150,
      "max": [
        0,
        0,
        0.69114947319030762,
        1
      ],
      "min": [
        0,
        0,
        0,
        0.72271186113357544
      ],
      "type": "VEC4"
    },
    {
      "bufferView": 6,
      "byteOffset": 1200,
      "componentType": 5126,
      "count": 152,
      "max": [
        5
      ],
      "min": [
        0.041666667908430099
      ],
      "type": "SCALAR"
    },
    {
      "bufferView": 8,
      "byteOffset": 4800,
      "componentType": 5126,
      "count": 152,
      "max": [
        0,
        0,
        0.030613668262958527,
        1
      ],
      "min": [
        0,
        0,
        -0.010154430754482746,
        0.99953126907348633
      ],
      "type": "VEC4"
    },
    {
      "bufferView": 6,
      "byteOffset": 1808,
      "componentType": 5126,
      "count": 152,
      "max": [
        5
      ],
      "min": [
        0.041666667908430099
      ],
      "type": "SCALAR"
    },
    {
      "bufferView": 8,
      "byteOffset": 7232,
      "componentType": 5126,
      "count": 152,
      "max": [
        0,
        0,
        0.66272127628326416,
        1
      ],
      "min": [
        0,
        0,
        0,
        0.74886614084243774
      ],
      "type": "VEC4"
    },
    {
      "bufferView": 6,
      "byteOffset": 2416,
      "componentType": 5126,
      "count": 66,
      "max": [
        5
      ],
      "min": [
        0.041666667908430099
      ],
      "type": "SCALAR"
    },
    {
      "bufferView": 7,
      "componentType": 5126,
      "count": 66,
      "max": [
        4.6708197593688965,
        0.25183010101318359,
        1.3877787807814457e-17
      ],
      "min": [
        4.6708197593688965,
        0.25183010101318359,
        -1.3877787807814457e-17
      ],
      "type": "VEC3"
    },
    {
      "bufferView": 6,
      "byteOffset": 2680,
      "componentType": 5126,
      "count": 157,
      "max": [
        5
      ],
      "min": [
        0.041666667908430099
      ],
      "type": "SCALAR"
    },
    {
      "bufferView": 8,
      "byteOffset": 9664,
      "componentType": 5126,
      "count": 157,
      "max": [
        5.0325603844240848e-21,
        6.7886995599975412e-21,
        0.17768312990665436,
        1
      ],
      "min": [
        -5.0150857900871186e-21,
        -3.4365271055097386e-21,
        -0.26433956623077393,
        0.96442967653274536
      ],
      "type": "VEC4"
    },
    {
      "bufferView": 6,
      "byteOffset": 3308,
      "componentType": 5126,
      "count": 56,
      "max": [
        5
      ],
      "min": [
        0.041666667908430099
      ],
      "type": "SCALAR"
    },
    {
      "bufferView": 7,
      "byteOffset": 792,
      "componentType": 5126,
      "count": 56,
      "max": [
        4.5823965072631836,
        -0.14676602184772491,
        2.7755575615628914e-17
      ],
      "min": [
        4.5823965072631836,
        -0.14676602184772491,
        -2.7755575615628914e-17
      ],
      "type": "VEC3"
    },
    {
      "bufferView": 6,
      "byteOffset": 3532,
      "componentType": 5126,
      "count": 159,
      "max": [
        5
      ],
      "min": [
        0.041666667908430099
      ],
      "type": "SCALAR"
    },
    {
      "bufferView": 8,
      "byteOffset": 12176,
      "componentType": 5126,
      "count": 159,
      "max": [
        3.766123440591958e-21,
        6.823146301072833e-21,
        0.43484103679656982,
        1
      ],
      "min": [
        -4.755236774955745e-21,
        -1.0177005832425203e-20,
        -0.25832274556159973,
        0.90050721168518066
      ],
      "type": "VEC4"
    },
    {
      "bufferView": 6,
      "byteOffset": 4168,
      "componentType": 5126,
      "count": 156,
      "max": [
        5
      ],
      "min": [
        0.041666667908430099
      ],
      "type": "SCALAR"
    },
    {
      "bufferView": 8,
      "byteOffset": 14720,
      "componentType": 5126,
      "count": 156,
      "max": [
        7.2891302806965541e-06,
        0,
        0.18247996270656586,
        0.99999028444290161
      ],
      "min": [
        -2.411946752545191e-06,
        -1.7538228348712437e-05,
        -0.69779044389724731,
        0.71630191802978516
      ],
      "type": "VEC4"
    },
    {
      "bufferView": 6,
      "byteOffset": 4792,
      "componentType": 5126,
      "count": 238,
      "max": [
        5
      ],
      "min": [
        0.041666667908430099
      ],
      "type": "SCALAR"
    },
    {
      "bufferView": 7,
      "byteOffset": 1464,
      "componentType": 5126,
      "count": 238,
      "max": [
        0,
        1.0731568336486816,
        0
      ],
      "min": [
        -0.004653535783290863,
        1.0731568336486816,
        0
      ],
      "type": "VEC3"
    },
    {
      "bufferView": 6,
      "byteOffset": 5744,
      "componentType": 5126,
      "count": 238,
      "max": [
        5
      ],
      "min": [
        0.041666667908430099
      ],
      "type": "SCALAR"
    },
    {
      "bufferView": 8,
      "byteOffset": 17216,
      "componentType": 5126,
      "count": 238,
      "max": [
        0,
        0,
        0.99983209371566772,
        0.70710676908493042
      ],
      "min": [
        0,
        0,
        0.70710676908493042,
        0.018324984237551689
      ],
      "type": "VEC4"
    }
  ],
  "animations": [
    {
      "channels": [
        {
          "sampler": 0,
          "target": {
            "node": 9,
            "path": "rotation"
          }
        },
        {
          "sampler": 1,
          "target": {
            "node": 10,
            "path": "rotation"
          }
        },
        {
          "sampler": 2,
          "target": {
            "node": 12,
            "path": "rotation"
          }
        },
        {
          "sampler": 3,
          "target": {
            "node": 11,
            "path": "rotation"
          }
        },
        {
          "sampler": 4,
          "target": {
            "node": 16,
            "path": "translation"
          }
        },
        {
          "sampler": 5,
          "target": {
            "node": 16,
            "path": "rotation"
          }
        },
        {
          "sampler": 6,
          "target": {
            "node": 15,
            "path": "translation"
          }
        },
        {
          "sampler": 7,
          "target": {
            "node": 15,
            "path": "rotation"
          }
        },
        {
          "sampler": 8,
          "target": {
            "node": 14,
            "path": "rotation"
          }
        },
        {
          "sampler": 9,
          "target": {
            "node": 8,
            "path": "translation"
          }
        },
        {
          "sampler": 10,
          "target": {
            "node": 8,
            "path": "rotation"
          }
        }
      ],
      "name": "Take 001",
      "samplers": [
        {
          "input": 7,
          "interpolation": "LINEAR",
          "output": 8
        },
        {
          "input": 9,
          "interpolation": "LINEAR",
          "output": 10
        },
        {
          "input": 11,
          "interpolation": "LINEAR",
          "output": 12
        },
        {
          "input": 13,
          "interpolation": "LINEAR",
          "output": 14
        },
        {
          "input": 15,
          "interpolation": "LINEAR",
          "output": 16
        },
        {
          "input": 17,
          "interpolation": "LINEAR",
          "output": 18
        },
        {
          "input": 19,
          "interpolation": "LINEAR",
          "output": 20
        },
        {
          "input": 21,
          "interpolation": "LINEAR",
          "output": 22
        },
        {
          "input": 23,
          "interpolation": "LINEAR",
          "output": 24
        },
        {
          "input": 25,
          "interpolation": "LINEAR",
          "output": 26
        },
        {
          "input": 27,
          "interpolation": "LINEAR",
          "output": 28
        }
      ]
    }
  ],
  "asset": {
    "extras": {
      "author": "Skreater (https://sketchfab.com/Skreater)",
      "license": "CC-BY-4.0 (http://creativecommons.org/licenses/by/4.0/)",
      "source": "https://sketchfab.com/3d-models/note-book-83c74e7caab14bd696320f87b8507fd1",
      "title": "Note book"
    },
    "generator": "Sketchfab-7.95.0",
    "version": "2.0"
  },
  "bufferViews": [
    {
      "buffer": 0,
      "byteLength": 5848,
      "byteOffset": 0,
      "byteStride": 8,
      "name": "shortBufferViews",
      "target": 34962
    },
    {
      "buffer": 0,
      "byteLength": 9264,
      "byteOffset": 5848,
      "name": "floatBufferViews",
      "target": 34963
    },
    {
      "buffer": 0,
      "byteLength": 5848,
      "byteOffset": 15112,
      "byteStride": 8,
      "name": "floatBufferViews",
      "target": 34962
    },
    {
      "buffer": 0,
      "byteLength": 17544,
      "byteOffset": 20960,
      "byteStride": 12,
      "name": "floatBufferViews",
      "target": 34962
    },
    {
      "buffer": 0,
      "byteLength": 11696,
      "byteOffset": 38504,
      "byteStride": 16,
      "name": "floatBufferViews",
      "target": 34962
    },
    {
      "buffer": 0,
      "byteLength": 640,
      "byteOffset": 50200,
      "byteStride": 64,
      "name": "floatBufferViews"
    },
    {
      "buffer": 0,
      "byteLength": 6696,
      "byteOffset": 50840,
      "name": "floatBufferViews"
    },
    {
      "buffer": 0,
      "byteLength": 4320,
      "byteOffset": 57536,
      "byteStride": 12,
      "name": "floatBufferViews"
    },
    {
      "buffer": 0,
      "byteLength": 21024,
      "byteOffset": 61856,
      "byteStride": 16,
      "name": "floatBufferViews"
    }
  ],
  "buffers": [
    {
      "byteLength": 82880,
      "uri": "scene.bin"
    }
  ],
  "materials": [
    {
      "doubleSided": true,
      "emissiveFactor": [
        0,
        0,
        0
      ],
      "name": "notitie_boekje_0_0_3notitie_boekje_0_0lambert4",
      "pbrMetallicRoughness": {
        "baseColorFactor": [
          1,
          1,
          1,
          1
        ],
        "metallicFactor": 0,
        "roughnessFactor": 0.59999999999999998
      }
    }
  ],
  "meshes": [
    {
      "name": "notitie_boekje_0_0_3:notitie_boekje_0_0:notitie_boekje_0_0:bladzijden_notitie_boekje_0_0_3:notitie_boekje_0_0:lambert4_0",
      "primitives": [
        {
          "attributes": {
            "JOINTS_0": 5,
            "NORMAL": 1,
            "POSITION": 0,
            "TEXCOORD_0": 2,
            "WEIGHTS_0": 6
          },
          "indices": 3,
          "material": 0,
          "mode": 4
        }
      ]
    }
  ],
  "nodes": [
    {
      "children": [
        1
      ],
      "name": "RootNode (gltf orientation matrix)",
      "rotation": [
        -0.70710678118654746,
        -0,
        -0,
        0.70710678118654757
      ]
    },
    {
      "children": [
        2
      ],
      "name": "RootNode (model correction matrix)"
    },
    {
      "children": [
        3
      ],
      "matrix": [
        1,
        0,
        0,
        0,
        0,
        0,
        1,
        0,
        0,
        -1,
        0,
        0,
        0,
        0,
        0,
        1
      ],
      "name": "280557a6b75241c098c40927c0b885ee.fbx"
    },
    {
      "children": [
        4
      ],
      "name": ""
    },
    {
      "children": [
        5
      ],
      "name": "RootNode"
    },
    {
      "children": [
        6,
        7,
        17
      ],
      "name": ""
    },
    {
      "children": [
        8
      ],
      "name": "_rootJoint"
    },
    {
      "mesh": 0,
      "name": "",
      "skin": 0
    },
    {
      "children": [
        9,
        10,
        11,
        14
      ],
      "name": "stam_00",
      "rotation": [
        0,
        0,
        0.99983209371566772,
        0.018324932083487511
      ],
      "translation": [
        -0.004653535783290863,
        1.0731568336486816,
        0
      ]
    },
    {
      "name": "kaft_R_01",
      "rotation": [
        0,
        0,
        0.020348221063613892,
        0.99979293346405029
      ],
      "translation": [
        0.28098580241203308,
        -0.57439303398132324,
        -0.07003551721572876
      ]
    },
    {
      "name": "kaft_L_02",
      "translation": [
        0.28098580241203308,
        0.74914848804473877,
        -0.07003551721572876
      ]
    },
    {
      "children": [
        12
      ],
      "name": "rug_L_03",
      "translation": [
        0.38042372465133667,
        0.17894726991653442,
        -0.07003551721572876
      ]
    },
    {
      "children": [
        13
      ],
      "name": "midden_L_04",
      "translation": [
        4.585667610168457,
        0.55444955825805664,
        0
      ]
    },
    {
      "name": "uiteinde_L_05",
      "translation": [
        4.6708197593688965,
        0.25183010101318359,
        0
      ]
    },
    {
      "children": [
        15
      ],
      "name": "rug_R_06",
      "rotation": [
        0,
        0,
        0.019197441637516022,
        0.99981570243835449
      ],
      "translation": [
        0.38042372465133667,
        -0.16174404323101044,
        -0.07003551721572876
      ]
    },
    {
      "children": [
        16
      ],
      "name": "midden_R_07",
      "translation": [
        4.5823965072631836,
        -0.14676602184772491,
        0
      ]
    },
    {
      "name": "uiteinde_R_08",
      "translation": [
        4.6708197593688965,
        0.25183010101318359,
        0
      ]
    },
    {
      "name": "notitie_boekje_0_0_3:notitie_boekje_0_0:notitie_boekje_0_0:bladzijden"
    }
  ],
  "scene": 0,
  "scenes": [
    {
      "name": "OSG_Scene",
      "nodes": [
        0
      ]
    }
  ],
  "skins": [
    {
      "inverseBindMatrices": 4,
      "joints": [
        6,
        8,
        9,
        10,
        11,
        12,
        13,
        14,
        15,
        16
      ],
      "skeleton": 6
    }
  ]
}

