{
  "accessors": [
    {
      "bufferView": 2,
      "componentType": 5126,
      "count": 96,
      "max": [
        0.72498100996017456,
        0.076546996831893921,
        0.98448199033737183
      ],
      "min": [
        -0.72803598642349243,
        0.066036999225616455,
        -0.82335299253463745
      ],
      "type": "VEC3"
    },
    {
      "bufferView": 2,
      "byteOffset": 1152,
      "componentType": 5126,
      "count": 96,
      "max": [
        1,
        1,
        1
      ],
      "min": [
        -1,
        -1,
        -1
      ],
      "type": "VEC3"
    },
    {
      "bufferView": 1,
      "componentType": 5126,
      "count": 96,
      "max": [
        1.4560730457305908,
        1.9689639806747437
      ],
      "min": [
        -1.4560730457305908,
        -1.6467070579528809
      ],
      "type": "VEC2"
    },
    {
      "bufferView": 0,
      "componentType": 5125,
      "count": 144,
      "max": [
        95
      ],
      "min": [
        0
      ],
      "type": "SCALAR"
    },
    {
      "bufferView": 2,
      "byteOffset": 2304,
      "componentType": 5126,
      "count": 228,
      "max": [
        0.87076598405838013,
        0.09612400084733963,
        1.0611139535903931
      ],
      "min": [
        -0.87381201982498169,
        -0.16600200533866882,
        -0.90025597810745239
      ],
      "type": "VEC3"
    },
    {
      "bufferView": 2,
      "byteOffset": 5040,
      "componentType": 5126,
      "count": 228,
      "max": [
        1,
        1,
        1
      ],
      "min": [
        -1,
        -1,
        -1
      ],
      "type": "VEC3"
    },
    {
      "bufferView": 3,
      "componentType": 5126,
      "count": 228,
      "max": [
        1,
        1,
        0.49377197027206421,
        1
      ],
      "min": [
        -1,
        -1,
        -0.8240172266960144,
        1
      ],
      "type": "VEC4"
    },
    {
      "bufferView": 1,
      "byteOffset": 768,
      "componentType": 5126,
      "count": 228,
      "max": [
        1.7476249933242798,
        2.1222279071807861
      ],
      "min": [
        -1.7476249933242798,
        -1.8005119562149048
      ],
      "type": "VEC2"
    },
    {
      "bufferView": 0,
      "byteOffset": 576,
      "componentType": 5125,
      "count": 792,
      "max": [
        227
      ],
      "min": [
        0
      ],
      "type": "SCALAR"
    },
    {
      "bufferView": 2,
      "byteOffset": 7776,
      "componentType": 5126,
      "count": 40,
      "max": [
        0.52037400007247925,
        0.0069439997896552086,
        -0.17573000490665436
      ],
      "min": [
        -0.57802498340606689,
        -9.1000001702923328e-05,
        -0.18779300153255463
      ],
      "type": "VEC3"
    },
    {
      "bufferView": 0,
      "byteOffset": 3744,
      "componentType": 5125,
      "count": 80,
      "max": [
        39
      ],
      "min": [
        0
      ],
      "type": "SCALAR"
    },
    {
      "bufferView": 2,
      "byteOffset": 8256,
      "componentType": 5126,
      "count": 29244,
      "max": [
        0.78347700834274292,
        0.097677998244762421,
        1.041079044342041
      ],
      "min": [
        -0.78653198480606079,
        -0.028094999492168427,
        -0.88024997711181641
      ],
      "type": "VEC3"
    },
    {
      "bufferView": 2,
      "byteOffset": 359184,
      "componentType": 5126,
      "count": 29244,
      "max": [
        1,
        1,
        1
      ],
      "min": [
        -1,
        -1,
        -1
      ],
      "type": "VEC3"
    },
    {
      "bufferView": 1,
      "byteOffset": 2592,
      "componentType": 5126,
      "count": 29244,
      "max": [
        1.5730630159378052,
        2.0821568965911865
      ],
      "min": [
        -1.5730630159378052,
        -1.7604999542236328
      ],
      "type": "VEC2"
    },
    {
      "bufferView": 0,
      "byteOffset": 4064,
      "componentType": 5125,
      "count": 148152,
      "max": [
        29243
      ],
      "min": [
        0
      ],
      "type": "SCALAR"
    }
  ],
  "asset": {
    "extras": {
      "author": "OTZ (https://sketchfab.com/OTZ_3D)",
      "license": "CC-BY-4.0 (http://creativecommons.org/licenses/by/4.0/)",
      "source": "https://sketchfab.com/3d-models/window1-f9608977b7124b268d1265c9f6afd2db",
      "title": "Window(1)"
    },
    "generator": "Sketchfab-8.86.0",
    "version": "2.0"
  },
  "bufferViews": [
    {
      "buffer": 0,
      "byteLength": 596672,
      "byteOffset": 0,
      "name": "floatBufferViews",
      "target": 34963
    },
    {
      "buffer": 0,
      "byteLength": 236544,
      "byteOffset": 596672,
      "byteStride": 8,
      "name": "floatBufferViews",
      "target": 34962
    },
    {
      "buffer": 0,
      "byteLength": 710112,
      "byteOffset": 833216,
      "byteStride": 12,
      "name": "floatBufferViews",
      "target": 34962
    },
    {
      "buffer": 0,
      "byteLength": 3648,
      "byteOffset": 1543328,
      "byteStride": 16,
      "name": "floatBufferViews",
      "target": 34962
    }
  ],
  "buffers": [
    {
      "byteLength": 1546976,
      "uri": "scene.bin"
    }
  ],
  "images": [
    {
      "uri": "textures/trim.001_baseColor.png"
    },
    {
      "uri": "textures/trim.001_normal.png"
    }
  ],
  "materials": [
    {
      "alphaMode": "BLEND",
      "doubleSided": true,
      "emissiveFactor": [
        0,
        0,
        0
      ],
      "name": "glasswindows",
      "pbrMetallicRoughness": {
        "baseColorFactor": [
          0.80000000000000004,
          0.80000000000000004,
          0.80000000000000004,
          0.029999999999999999
        ],
        "metallicFactor": 0,
        "roughnessFactor": 1
      }
    },
    {
      "doubleSided": true,
      "emissiveFactor": [
        0,
        0,
        0
      ],
      "name": "trim.001",
      "normalTexture": {
        "index": 1,
        "scale": 0.068591953498835651,
        "texCoord": 0
      },
      "pbrMetallicRoughness": {
        "baseColorFactor": [
          0.76173169411864849,
          0.76173169411864849,
          0.76173169411864849,
          1
        ],
        "baseColorTexture": {
          "index": 0,
          "texCoord": 0
        },
        "metallicFactor": 0,
        "roughnessFactor": 0.58540667238202948
      }
    },
    {
      "doubleSided": true,
      "emissiveFactor": [
        0,
        0,
        0
      ],
      "name": "windows",
      "pbrMetallicRoughness": {
        "baseColorFactor": [
          0.57047224704959598,
          0.57047224704959598,
          0.57047224704959598,
          1
        ],
        "metallicFactor": 0,
        "roughnessFactor": 0.78803183759999995
      }
    }
  ],
  "meshes": [
    {
      "primitives": [
        {
          "attributes": {
            "NORMAL": 1,
            "POSITION": 0,
            "TEXCOORD_0": 2
          },
          "indices": 3,
          "material": 0,
          "mode": 4
        }
      ]
    },
    {
      "primitives": [
        {
          "attributes": {
            "NORMAL": 5,
            "POSITION": 4,
            "TANGENT": 6,
            "TEXCOORD_0": 7
          },
          "indices": 8,
          "material": 1,
          "mode": 4
        }
      ]
    },
    {
      "primitives": [
        {
          "attributes": {
            "POSITION": 9
          },
          "indices": 10,
          "material": 2,
          "mode": 1
        }
      ]
    },
    {
      "primitives": [
        {
          "attributes": {
            "NORMAL": 12,
            "POSITION": 11,
            "TEXCOORD_0": 13
          },
          "indices": 14,
          "material": 2,
          "mode": 4
        }
      ]
    }
  ],
  "nodes": [
    {
      "children": [
        1
      ],
      "name": "RootNode (gltf orientation matrix)",
      "rotation": [
        -0.70710678118654746,
        -0,
        -0,
        0.70710678118654757
      ]
    },
    {
      "children": [
        2
      ],
      "name": "RootNode (model correction matrix)"
    },
    {
      "children": [
        3,
        4,
        5,
        6
      ],
      "name": "window(1)_1.0.obj.cleaner.materialmerger.gles"
    },
    {
      "mesh": 0,
      "name": ""
    },
    {
      "mesh": 1,
      "name": ""
    },
    {
      "mesh": 2,
      "name": ""
    },
    {
      "mesh": 3,
      "name": ""
    }
  ],
  "samplers": [
    {
      "magFilter": 9729,
      "minFilter": 9987,
      "wrapS": 10497,
      "wrapT": 10497
    }
  ],
  "scene": 0,
  "scenes": [
    {
      "name": "OSG_Scene",
      "nodes": [
        0
      ]
    }
  ],
  "textures": [
    {
      "sampler": 0,
      "source": 0
    },
    {
      "sampler": 0,
      "source": 1
    }
  ]
}

