{
  "accessors": [
    {
      "bufferView": 2,
      "componentType": 5126,
      "count": 256,
      "max": [
        35,
        12.690274238586426,
        78.997528076171875
      ],
      "min": [
        -35,
        -38.150035858154297,
        -8.5472412109375
      ],
      "type": "VEC3"
    },
    {
      "bufferView": 2,
      "byteOffset": 3072,
      "componentType": 5126,
      "count": 256,
      "max": [
        1,
        0.97401654720306396,
        0.96592563390731812
      ],
      "min": [
        -1,
        -0.97401660680770874,
        -1
      ],
      "type": "VEC3"
    },
    {
      "bufferView": 1,
      "componentType": 5126,
      "count": 256,
      "max": [
        0.98929661512374878,
        0.99500000476837158
      ],
      "min": [
        0.004999999888241291,
        0.004999999888241291
      ],
      "type": "VEC2"
    },
    {
      "bufferView": 0,
      "componentType": 5125,
      "count": 456,
      "max": [
        255
      ],
      "min": [
        0
      ],
      "type": "SCALAR"
    },
    {
      "bufferView": 2,
      "byteOffset": 6144,
      "componentType": 5126,
      "count": 76,
      "max": [
        0.67787611484527588,
        0.66757768392562866,
        65
      ],
      "min": [
        -0.67787611484527588,
        -0.66757774353027344,
        0
      ],
      "type": "VEC3"
    },
    {
      "bufferView": 2,
      "byteOffset": 7056,
      "componentType": 5126,
      "count": 76,
      "max": [
        1,
        0.98480790853500366,
        1
      ],
      "min": [
        -1,
        -0.98480796813964844,
        -1
      ],
      "type": "VEC3"
    },
    {
      "bufferView": 1,
      "byteOffset": 2048,
      "componentType": 5126,
      "count": 76,
      "max": [
        0.99240392446517944,
        2.0154263973236084
      ],
      "min": [
        -0.028197526931762695,
        -0.015426397323608398
      ],
      "type": "VEC2"
    },
    {
      "bufferView": 1,
      "byteOffset": 2656,
      "componentType": 5126,
      "count": 76,
      "max": [
        0.99240392446517944,
        2.0154263973236084
      ],
      "min": [
        -0.028197526931762695,
        -0.015426397323608398
      ],
      "type": "VEC2"
    },
    {
      "bufferView": 0,
      "byteOffset": 1824,
      "componentType": 5125,
      "count": 216,
      "max": [
        75
      ],
      "min": [
        0
      ],
      "type": "SCALAR"
    }
  ],
  "asset": {
    "extras": {
      "author": "DeadDumplings (https://sketchfab.com/DeadDumplings)",
      "license": "CC-BY-4.0 (http://creativecommons.org/licenses/by/4.0/)",
      "source": "https://sketchfab.com/3d-models/futuristic-sandwich-board-5d0405cc87c3494a856e6fd2107e9447",
      "title": "Futuristic Sandwich Board"
    },
    "generator": "Sketchfab-8.21.0",
    "version": "2.0"
  },
  "bufferViews": [
    {
      "buffer": 0,
      "byteLength": 2688,
      "byteOffset": 0,
      "name": "floatBufferViews",
      "target": 34963
    },
    {
      "buffer": 0,
      "byteLength": 3264,
      "byteOffset": 2688,
      "byteStride": 8,
      "name": "floatBufferViews",
      "target": 34962
    },
    {
      "buffer": 0,
      "byteLength": 7968,
      "byteOffset": 5952,
      "byteStride": 12,
      "name": "floatBufferViews",
      "target": 34962
    }
  ],
  "buffers": [
    {
      "byteLength": 13920,
      "uri": "scene.bin"
    }
  ],
  "images": [
    {
      "uri": "textures/Material_27_baseColor.png"
    },
    {
      "uri": "textures/Material_27_emissive.png"
    }
  ],
  "materials": [
    {
      "doubleSided": true,
      "emissiveFactor": [
        1,
        1,
        1
      ],
      "emissiveTexture": {
        "index": 1,
        "texCoord": 0
      },
      "name": "Material_27",
      "pbrMetallicRoughness": {
        "baseColorFactor": [
          1,
          1,
          1,
          1
        ],
        "baseColorTexture": {
          "index": 0,
          "texCoord": 0
        },
        "metallicFactor": 0,
        "roughnessFactor": 0.89297135964975516
      }
    },
    {
      "doubleSided": true,
      "emissiveFactor": [
        0,
        0,
        0
      ],
      "name": "Material_28",
      "pbrMetallicRoughness": {
        "baseColorFactor": [
          0.37254900000000002,
          0.20392199999999999,
          0.11372500000000001,
          1
        ],
        "metallicFactor": 0,
        "roughnessFactor": 0.89297135964975516
      }
    }
  ],
  "meshes": [
    {
      "name": "Box001_Material #27_0",
      "primitives": [
        {
          "attributes": {
            "NORMAL": 1,
            "POSITION": 0,
            "TEXCOORD_0": 2
          },
          "indices": 3,
          "material": 0,
          "mode": 4
        }
      ]
    },
    {
      "name": "Cylinder001_Material #28_0",
      "primitives": [
        {
          "attributes": {
            "NORMAL": 5,
            "POSITION": 4,
            "TEXCOORD_0": 6,
            "TEXCOORD_1": 7
          },
          "indices": 8,
          "material": 1,
          "mode": 4
        }
      ]
    }
  ],
  "nodes": [
    {
      "children": [
        1
      ],
      "name": "RootNode (gltf orientation matrix)",
      "rotation": [
        -0.70710678118654746,
        -0,
        -0,
        0.70710678118654757
      ]
    },
    {
      "children": [
        2
      ],
      "matrix": [
        0.012559410184621811,
        0,
        0,
        0,
        0,
        0.012559410184621811,
        0,
        0,
        0,
        0,
        0.012559410184621811,
        0,
        0,
        0,
        0,
        1
      ],
      "name": "RootNode (model correction matrix)"
    },
    {
      "children": [
        3
      ],
      "matrix": [
        1,
        0,
        0,
        0,
        0,
        0,
        1,
        0,
        0,
        -1,
        0,
        0,
        0,
        0,
        0,
        1
      ],
      "name": "f345443efae54dabba8774321341648c.fbx"
    },
    {
      "children": [
        4,
        6
      ],
      "name": "RootNode"
    },
    {
      "children": [
        5
      ],
      "matrix": [
        1,
        0,
        0,
        0,
        0,
        2.2204460492503131e-16,
        -1,
        0,
        0,
        1,
        2.2204460492503131e-16,
        0,
        -4.1294842958450317e-06,
        13.419166564941406,
        -28.191978454589844,
        1
      ],
      "name": "Box001"
    },
    {
      "mesh": 0,
      "name": "Box001_Material #27_0"
    },
    {
      "children": [
        7
      ],
      "matrix": [
        4.3711388286737929e-08,
        -0.99999999999999911,
        0,
        0,
        0,
        0,
        -1,
        0,
        0.99999999999999911,
        4.3711388286737929e-08,
        0,
        0,
        -32.581562042236328,
        91.856666564941406,
        -15.462091445922852,
        1
      ],
      "name": "Cylinder001"
    },
    {
      "mesh": 1,
      "name": "Cylinder001_Material #28_0"
    }
  ],
  "samplers": [
    {
      "magFilter": 9729,
      "minFilter": 9987,
      "wrapS": 10497,
      "wrapT": 10497
    }
  ],
  "scene": 0,
  "scenes": [
    {
      "name": "OSG_Scene",
      "nodes": [
        0
      ]
    }
  ],
  "textures": [
    {
      "sampler": 0,
      "source": 0
    },
    {
      "sampler": 0,
      "source": 1
    }
  ]
}

