{
  "accessors": [
    {
      "bufferView": 2,
      "componentType": 5126,
      "count": 3985,
      "max": [
        2.5617330074310303,
        6.4583868980407715,
        73.8856201171875
      ],
      "min": [
        -0.34317699074745178,
        3.4255390167236328,
        66.7064208984375
      ],
      "type": "VEC3"
    },
    {
      "bufferView": 2,
      "byteOffset": 47820,
      "componentType": 5126,
      "count": 3985,
      "max": [
        0.99979311227798462,
        0.99990111589431763,
        0.99984437227249146
      ],
      "min": [
        -0.99987035989761353,
        -0.99811077117919922,
        -0.99990534782409668
      ],
      "type": "VEC3"
    },
    {
      "bufferView": 3,
      "componentType": 5126,
      "count": 3985,
      "max": [
        0.99945175647735596,
        0.99586886167526245,
        0.99979698657989502,
        1
      ],
      "min": [
        -0.99986231327056885,
        -0.99990189075469971,
        -0.99995499849319458,
        1
      ],
      "type": "VEC4"
    },
    {
      "bufferView": 1,
      "componentType": 5126,
      "count": 3985,
      "max": [
        0.99900001287460327,
        0.99187499284744263
      ],
      "min": [
        0.0010000000474974513,
        0.0010000000474974513
      ],
      "type": "VEC2"
    },
    {
      "bufferView": 0,
      "componentType": 5125,
      "count": 19446,
      "max": [
        3984
      ],
      "min": [
        0
      ],
      "type": "SCALAR"
    },
    {
      "bufferView": 2,
      "byteOffset": 95640,
      "componentType": 5126,
      "count": 4704,
      "max": [
        26.853729248046875,
        8.145477294921875,
        71.614242553710938
      ],
      "min": [
        -8.3560829162597656,
        0.98697799444198608,
        29.7125244140625
      ],
      "type": "VEC3"
    },
    {
      "bufferView": 2,
      "byteOffset": 152088,
      "componentType": 5126,
      "count": 4704,
      "max": [
        0.99999988079071045,
        1,
        1
      ],
      "min": [
        -0.99999988079071045,
        -1,
        -1
      ],
      "type": "VEC3"
    },
    {
      "bufferView": 3,
      "byteOffset": 63760,
      "componentType": 5126,
      "count": 4704,
      "max": [
        0.99999982118606567,
        1,
        1,
        1
      ],
      "min": [
        -0.99999988079071045,
        -1,
        -1,
        -1
      ],
      "type": "VEC4"
    },
    {
      "bufferView": 1,
      "byteOffset": 31880,
      "componentType": 5126,
      "count": 4704,
      "max": [
        0.99807602167129517,
        0.99817198514938354
      ],
      "min": [
        0.0043830000795423985,
        0.0019089999841526151
      ],
      "type": "VEC2"
    },
    {
      "bufferView": 0,
      "byteOffset": 77784,
      "componentType": 5125,
      "count": 9216,
      "max": [
        4703
      ],
      "min": [
        0
      ],
      "type": "SCALAR"
    },
    {
      "bufferView": 2,
      "byteOffset": 208536,
      "componentType": 5126,
      "count": 9076,
      "max": [
        30.588088989257812,
        10.209856033325195,
        81.856422424316406
      ],
      "min": [
        -11.746786117553711,
        -6.2517251968383789,
        0.63315999507904053
      ],
      "type": "VEC3"
    },
    {
      "bufferView": 2,
      "byteOffset": 317448,
      "componentType": 5126,
      "count": 9076,
      "max": [
        1,
        1,
        1
      ],
      "min": [
        -1,
        -1,
        -1
      ],
      "type": "VEC3"
    },
    {
      "bufferView": 3,
      "byteOffset": 139024,
      "componentType": 5126,
      "count": 9076,
      "max": [
        1,
        1,
        0.99992340803146362,
        1
      ],
      "min": [
        -1,
        -1,
        -0.9999234676361084,
        1
      ],
      "type": "VEC4"
    },
    {
      "bufferView": 1,
      "byteOffset": 69512,
      "componentType": 5126,
      "count": 9076,
      "max": [
        0.99900001287460327,
        0.99816298484802246
      ],
      "min": [
        0.0010000000474974513,
        0.0010000000474974513
      ],
      "type": "VEC2"
    },
    {
      "bufferView": 0,
      "byteOffset": 114648,
      "componentType": 5125,
      "count": 43158,
      "max": [
        9075
      ],
      "min": [
        0
      ],
      "type": "SCALAR"
    }
  ],
  "asset": {
    "extras": {
      "author": "M.Reslan (https://sketchfab.com/mreslan)",
      "license": "CC-BY-4.0 (http://creativecommons.org/licenses/by/4.0/)",
      "source": "https://sketchfab.com/3d-models/book-cabinet-vintage-aa9a7f23471a4bb6b461d5240c2bf1a7",
      "title": "Book Cabinet (Vintage)"
    },
    "generator": "Sketchfab-6.63.1",
    "version": "2.0"
  },
  "bufferViews": [
    {
      "buffer": 0,
      "byteLength": 287280,
      "byteOffset": 0,
      "name": "floatBufferViews",
      "target": 34963
    },
    {
      "buffer": 0,
      "byteLength": 142120,
      "byteOffset": 287280,
      "byteStride": 8,
      "name": "floatBufferViews",
      "target": 34962
    },
    {
      "buffer": 0,
      "byteLength": 426360,
      "byteOffset": 429400,
      "byteStride": 12,
      "name": "floatBufferViews",
      "target": 34962
    },
    {
      "buffer": 0,
      "byteLength": 284240,
      "byteOffset": 855760,
      "byteStride": 16,
      "name": "floatBufferViews",
      "target": 34962
    }
  ],
  "buffers": [
    {
      "byteLength": 1140000,
      "uri": "scene.bin"
    }
  ],
  "images": [
    {
      "uri": "textures/Books_baseColor.jpeg"
    },
    {
      "uri": "textures/Books_metallicRoughness.png"
    },
    {
      "uri": "textures/Books_normal.png"
    },
    {
      "uri": "textures/Cabinet_baseColor.png"
    },
    {
      "uri": "textures/Cabinet_metallicRoughness.png"
    },
    {
      "uri": "textures/Cabinet_normal.png"
    },
    {
      "uri": "textures/Sculpture_baseColor.jpeg"
    },
    {
      "uri": "textures/Sculpture_metallicRoughness.png"
    },
    {
      "uri": "textures/Sculpture_normal.png"
    }
  ],
  "materials": [
    {
      "doubleSided": true,
      "name": "Books",
      "normalTexture": {
        "index": 2,
        "scale": 1,
        "texCoord": 0
      },
      "pbrMetallicRoughness": {
        "baseColorFactor": [
          1,
          1,
          1,
          1
        ],
        "baseColorTexture": {
          "index": 0,
          "texCoord": 0
        },
        "metallicFactor": 0,
        "metallicRoughnessTexture": {
          "index": 1,
          "texCoord": 0
        },
        "roughnessFactor": 1
      }
    },
    {
      "doubleSided": true,
      "name": "Cabinet",
      "normalTexture": {
        "index": 5,
        "scale": 1,
        "texCoord": 0
      },
      "occlusionTexture": {
        "index": 4,
        "strength": 1,
        "texCoord": 0
      },
      "pbrMetallicRoughness": {
        "baseColorFactor": [
          1,
          1,
          1,
          1
        ],
        "baseColorTexture": {
          "index": 3,
          "texCoord": 0
        },
        "metallicFactor": 1,
        "metallicRoughnessTexture": {
          "index": 4,
          "texCoord": 0
        },
        "roughnessFactor": 1
      }
    },
    {
      "doubleSided": true,
      "name": "Sculpture",
      "normalTexture": {
        "index": 8,
        "scale": 1,
        "texCoord": 0
      },
      "occlusionTexture": {
        "index": 7,
        "strength": 1,
        "texCoord": 0
      },
      "pbrMetallicRoughness": {
        "baseColorFactor": [
          1,
          1,
          1,
          1
        ],
        "baseColorTexture": {
          "index": 6,
          "texCoord": 0
        },
        "metallicFactor": 0,
        "metallicRoughnessTexture": {
          "index": 7,
          "texCoord": 0
        },
        "roughnessFactor": 0.84999999999999998
      }
    }
  ],
  "meshes": [
    {
      "primitives": [
        {
          "attributes": {
            "NORMAL": 1,
            "POSITION": 0,
            "TANGENT": 2,
            "TEXCOORD_0": 3
          },
          "indices": 4,
          "material": 2,
          "mode": 4
        }
      ]
    },
    {
      "primitives": [
        {
          "attributes": {
            "NORMAL": 6,
            "POSITION": 5,
            "TANGENT": 7,
            "TEXCOORD_0": 8
          },
          "indices": 9,
          "material": 0,
          "mode": 4
        }
      ]
    },
    {
      "primitives": [
        {
          "attributes": {
            "NORMAL": 11,
            "POSITION": 10,
            "TANGENT": 12,
            "TEXCOORD_0": 13
          },
          "indices": 14,
          "material": 1,
          "mode": 4
        }
      ]
    }
  ],
  "nodes": [
    {
      "children": [
        1
      ],
      "name": "RootNode (gltf orientation matrix)",
      "rotation": [
        -0.70710678118654746,
        -0,
        -0,
        0.70710678118654757
      ]
    },
    {
      "children": [
        2
      ],
      "name": "RootNode (model correction matrix)"
    },
    {
      "children": [
        3,
        4,
        5
      ],
      "name": "Cabinet.obj.cleaner.materialmerger.gles"
    },
    {
      "mesh": 0,
      "name": ""
    },
    {
      "mesh": 1,
      "name": ""
    },
    {
      "mesh": 2,
      "name": ""
    }
  ],
  "samplers": [
    {
      "magFilter": 9729,
      "minFilter": 9987,
      "wrapS": 10497,
      "wrapT": 10497
    }
  ],
  "scene": 0,
  "scenes": [
    {
      "name": "OSG_Scene",
      "nodes": [
        0
      ]
    }
  ],
  "textures": [
    {
      "sampler": 0,
      "source": 0
    },
    {
      "sampler": 0,
      "source": 1
    },
    {
      "sampler": 0,
      "source": 2
    },
    {
      "sampler": 0,
      "source": 3
    },
    {
      "sampler": 0,
      "source": 4
    },
    {
      "sampler": 0,
      "source": 5
    },
    {
      "sampler": 0,
      "source": 6
    },
    {
      "sampler": 0,
      "source": 7
    },
    {
      "sampler": 0,
      "source": 8
    }
  ]
}

