{
  "accessors": [
    {
      "bufferView": 2,
      "componentType": 5126,
      "count": 12018,
      "max": [
        3.1215200424194336,
        0.62999999523162842,
        2.7041099071502686
      ],
      "min": [
        -4.0817999839782715,
        -3.6073899269104004,
        -2.7041099071502686
      ],
      "type": "VEC3"
    },
    {
      "bufferView": 2,
      "byteOffset": 144216,
      "componentType": 5126,
      "count": 12018,
      "max": [
        1,
        1,
        1
      ],
      "min": [
        -1,
        -1,
        -1
      ],
      "type": "VEC3"
    },
    {
      "bufferView": 3,
      "componentType": 5126,
      "count": 12018,
      "max": [
        1,
        1,
        0.99988794326782227,
        1
      ],
      "min": [
        -1,
        -1,
        -0.99581778049468994,
        -1
      ],
      "type": "VEC4"
    },
    {
      "bufferView": 0,
      "componentType": 5125,
      "count": 18252,
      "max": [
        12017
      ],
      "min": [
        0
      ],
      "type": "SCALAR"
    },
    {
      "bufferView": 2,
      "byteOffset": 288432,
      "componentType": 5126,
      "count": 1250,
      "max": [
        0.035679999738931656,
        0.625,
        1.2424900531768799
      ],
      "min": [
        -0.035679999738931656,
        -0.625,
        -1.2575099468231201
      ],
      "type": "VEC3"
    },
    {
      "bufferView": 2,
      "byteOffset": 303432,
      "componentType": 5126,
      "count": 1250,
      "max": [
        1,
        1,
        1
      ],
      "min": [
        -1,
        -1,
        -1
      ],
      "type": "VEC3"
    },
    {
      "bufferView": 3,
      "byteOffset": 192288,
      "componentType": 5126,
      "count": 1250,
      "max": [
        1,
        1,
        0.63611996173858643,
        1
      ],
      "min": [
        -1,
        -1,
        -1,
        1
      ],
      "type": "VEC4"
    },
    {
      "bufferView": 1,
      "componentType": 5126,
      "count": 1250,
      "max": [
        8.5,
        8.5
      ],
      "min": [
        -7.5,
        -7.5
      ],
      "type": "VEC2"
    },
    {
      "bufferView": 0,
      "byteOffset": 73008,
      "componentType": 5125,
      "count": 2580,
      "max": [
        1249
      ],
      "min": [
        0
      ],
      "type": "SCALAR"
    }
  ],
  "asset": {
    "extras": {
      "author": "qwertderstar (https://sketchfab.com/qwertderstar)",
      "license": "CC-BY-4.0 (http://creativecommons.org/licenses/by/4.0/)",
      "source": "https://sketchfab.com/models/5507795f3c234c3d853aba1bbdc70e84",
      "title": "Door"
    },
    "generator": "Sketchfab-3.19.6",
    "version": "2.0"
  },
  "bufferViews": [
    {
      "buffer": 0,
      "byteLength": 83328,
      "byteOffset": 0,
      "name": "floatBufferViews",
      "target": 34963
    },
    {
      "buffer": 0,
      "byteLength": 10000,
      "byteOffset": 83328,
      "byteStride": 8,
      "name": "floatBufferViews",
      "target": 34962
    },
    {
      "buffer": 0,
      "byteLength": 318432,
      "byteOffset": 93328,
      "byteStride": 12,
      "name": "floatBufferViews",
      "target": 34962
    },
    {
      "buffer": 0,
      "byteLength": 212288,
      "byteOffset": 411760,
      "byteStride": 16,
      "name": "floatBufferViews",
      "target": 34962
    }
  ],
  "buffers": [
    {
      "byteLength": 624048,
      "uri": "scene.bin"
    }
  ],
  "extensionsRequired": [
    "KHR_materials_pbrSpecularGlossiness"
  ],
  "extensionsUsed": [
    "KHR_materials_pbrSpecularGlossiness"
  ],
  "images": [
    {
      "uri": "textures/Material.001_normal.png"
    }
  ],
  "materials": [
    {
      "doubleSided": false,
      "extensions": {
        "KHR_materials_pbrSpecularGlossiness": {
          "diffuseFactor": [
            0.50484663139999997,
            0.50484663139999997,
            0.50484663139999997,
            1
          ],
          "glossinessFactor": 0.66693250970000006,
          "specularFactor": [
            0.54165644729999995,
            0.54165644729999995,
            0.54165644729999995
          ]
        }
      },
      "name": "Material.001",
      "normalTexture": {
        "index": 0,
        "scale": 0.2042331345,
        "texCoord": 0
      }
    },
    {
      "doubleSided": true,
      "emissiveFactor": [
        0,
        0,
        0
      ],
      "extensions": {
        "KHR_materials_pbrSpecularGlossiness": {
          "diffuseFactor": [
            0.82289136640000005,
            0.81468443089999998,
            0.097619117899999996,
            1
          ],
          "glossinessFactor": 0.80803680420000001,
          "specularFactor": [
            1,
            1,
            1
          ]
        }
      },
      "name": "Material"
    }
  ],
  "meshes": [
    {
      "name": "doorHandle_0",
      "primitives": [
        {
          "attributes": {
            "NORMAL": 1,
            "POSITION": 0,
            "TANGENT": 2
          },
          "indices": 3,
          "material": 1,
          "mode": 4
        }
      ]
    },
    {
      "name": "Door_0",
      "primitives": [
        {
          "attributes": {
            "NORMAL": 5,
            "POSITION": 4,
            "TANGENT": 6,
            "TEXCOORD_0": 7
          },
          "indices": 8,
          "material": 0,
          "mode": 4
        }
      ]
    }
  ],
  "nodes": [
    {
      "children": [
        1
      ],
      "name": "RootNode (gltf orientation matrix)",
      "rotation": [
        -0.70710678118654746,
        -0,
        -0,
        0.70710678118654757
      ]
    },
    {
      "children": [
        2
      ],
      "name": "RootNode (model correction matrix)"
    },
    {
      "children": [
        3,
        5,
        7
      ],
      "name": "Root"
    },
    {
      "children": [
        4
      ],
      "matrix": [
        0.055000000000000007,
        0,
        0,
        0,
        0,
        0.055000000000000007,
        0,
        0,
        0,
        0,
        0.055000000000000007,
        0,
        -0.00053000000000000009,
        0.55375000000000008,
        1.1092299999999999,
        1
      ],
      "name": "doorHandle"
    },
    {
      "mesh": 0,
      "name": "doorHandle_0"
    },
    {
      "children": [
        6
      ],
      "matrix": [
        1,
        0,
        0,
        0,
        0,
        1,
        0,
        0,
        0,
        0,
        1,
        0,
        -0.026940000000000006,
        -1.0000000000000004e-05,
        1.2575099999999999,
        1
      ],
      "name": "Door"
    },
    {
      "mesh": 1,
      "name": "Door_0"
    },
    {
      "children": [
        8
      ],
      "matrix": [
        0.74743000000000004,
        0.04658000000000001,
        -0.66270000000000018,
        0,
        -0.22220000000000004,
        0.95761000000000007,
        -0.18330000000000002,
        0,
        0.62607000000000013,
        0.28426000000000001,
        0.72610000000000008,
        0,
        0,
        0,
        0,
        1
      ],
      "name": "Sun"
    },
    {
      "name": "Sun"
    }
  ],
  "samplers": [
    {
      "magFilter": 9729,
      "minFilter": 9987,
      "wrapS": 10497,
      "wrapT": 10497
    }
  ],
  "scene": 0,
  "scenes": [
    {
      "name": "OSG_Scene",
      "nodes": [
        0
      ]
    }
  ],
  "textures": [
    {
      "sampler": 0,
      "source": 0
    }
  ]
}

